<?xml version="1.0" encoding="utf-8"?>
<!-- Svg Vector Icons : http://www.onlinewebfonts.com/icon -->
<!DOCTYPE svg PUBLIC "-//W3C//DTD SVG 1.1//EN" "http://www.w3.org/Graphics/SVG/1.1/DTD/svg11.dtd">
<svg fill="crimson" version="1.1" xmlns="http://www.w3.org/2000/svg" xmlns:xlink="http://www.w3.org/1999/xlink" x="0px" y="0px" viewBox="0 0 1000 1000" enable-background="new 0 0 1000 1000" xml:space="preserve">
<metadata> Svg Vector Icons : http://www.onlinewebfonts.com/icon </metadata>
<g><g transform="translate(0.000000,511.000000) scale(0.100000,-0.100000)"><path d="M5034.3,4993.1c-498.2-53.7-1139.5-219.7-1535.6-393.5l-138-61.3v-638.8c0-406.3-10.2-643.9-25.5-654.1c-51.1-30.7-150.7-260.6-176.3-411.3c-66.4-360.3,107.3-764,393.5-919.8c69-35.8,97.1-71.5,117.5-150.8c63.9-242.7,242.7-733.3,365.4-1009.2c166.1-373,383.3-705.2,600.4-922.3c278.5-278.5,490.6-355.2,986.2-355.2c490.6,0,707.8,79.2,988.8,357.7c332.1,332.2,643.9,935.2,901.9,1745.1c94.5,288.7,99.6,301.5,201.9,357.7c127.7,69,281.1,270.8,339.8,439.5c53.6,158.4,51.1,472.7-2.6,620.9c-20.4,58.8-74.1,158.4-117.5,219.7l-76.7,115V3943v613.2l-171.2,63.9c-416.5,153.3-866.1,268.3-1310.7,337.3C6043.5,5008.5,5340.9,5026.3,5034.3,4993.1z M6592.9,3235.3c536.6-61.3,820.1-112.4,901.9-161c120.1-74.1,191.6-230,191.6-416.5c0-245.3-109.9-398.6-306.6-431.8l-97.1-15.3l-99.7-337.3c-53.6-186.5-120.1-401.1-148.2-472.7l-48.5-135.4H6667h-316.8v104.8c0,309.1-322,503.3-789.5,477.8c-258-15.3-439.5-84.3-564.7-212.1c-69-69-86.9-112.4-99.6-235.1l-15.3-148.2l-309.2-7.7l-309.2-7.7l-56.2,148.2c-30.7,81.8-99.6,298.9-153.3,480.3l-99.6,332.1l-102.2,25.5c-212.1,53.7-337.3,268.3-301.5,516.1c17.9,143.1,115,298.9,212.1,350c84.3,40.9,710.3,135.4,1131.9,168.6C5246.4,3283.8,6270.9,3271.1,6592.9,3235.3z M4898.9,708.4c28.1-232.5,194.2-357.7,544.2-413.9c321.9-51.1,707.7,56.2,838,235.1c28.1,35.8,56.2,125.2,63.9,196.7l12.8,130.3h224.8c125.2,0,227.4-5.1,227.4-12.8c0-7.7-25.5-63.9-53.6-122.6c-109.9-214.6-286.2-467.6-426.7-613.2c-199.3-201.9-327.1-247.8-702.6-247.8c-158.4,0-332.2,12.8-388.4,28.1c-140.5,38.3-314.3,171.2-452.2,347.5c-125.2,161-352.6,541.7-352.6,592.8c0,20.4,63.9,28.1,224.8,23l222.3-7.7L4898.9,708.4z"/><path d="M662.7,4242c-150.7-161-265.7-631.1-321.9-1333.7c-40.9-534,38.3-1114,186.5-1351.6c33.2-56.2,48.5-127.8,48.5-235.1c0-143.1-5.1-158.4-76.7-209.5c-43.4-30.7-99.6-99.6-127.7-155.8c-51.1-97.1-51.1-145.6-46-2739l7.7-2641.9l71.5-92c230-304.1,700.1-237.6,827.8,115c20.4,63.9,30.7,746.1,30.7,2652.1c2.6,2455.4,0,2572.9-46,2672.6c-25.5,58.8-89.4,138-140.5,178.9c-89.4,71.5-92,79.2-92,252.9c0,219.7,40.9,296.4,288.7,523.8c230,214.6,278.5,311.7,293.8,587.7c25.6,521.2-304,1550.9-572.3,1788.5C872.2,4362,772.5,4356.9,662.7,4242z"/><path d="M4492.6-612.6C3051.6-919.2,1955.5-1859.4,1631-3070.5c-63.9-237.6-69-291.3-79.2-983.7l-10.2-735.8h4067.6h4067.6l-12.8,748.6c-10.2,840.6-28.1,955.6-217.2,1392.5c-296.4,687.3-955.6,1341.4-1719.5,1704.2c-296.4,138-700.1,273.4-993.9,329.6c-120.1,23-240.2,48.5-270.8,53.6c-48.6,10.2-79.2-74.1-447.1-1354.2c-217.2-751.2-398.6-1366.9-406.2-1366.9c-7.7,0-189.1,615.8-406.3,1366.9c-217.2,751.2-401.1,1366.9-408.8,1364.4C4786.4-551.2,4651-579.3,4492.6-612.6z"/></g></g>
</svg>