<?xml version="1.0" encoding="utf-8"?>
<!-- Svg Vector Icons : http://www.onlinewebfonts.com/icon -->
<!DOCTYPE svg PUBLIC "-//W3C//DTD SVG 1.1//EN" "http://www.w3.org/Graphics/SVG/1.1/DTD/svg11.dtd">
<svg fill="crimson" version="1.1" xmlns="http://www.w3.org/2000/svg" xmlns:xlink="http://www.w3.org/1999/xlink" x="0px" y="0px" viewBox="0 0 1000 1000" enable-background="new 0 0 1000 1000" xml:space="preserve">
<metadata> Svg Vector Icons : http://www.onlinewebfonts.com/icon </metadata>
<g><path d="M756.5,463.8c-10.3-9.7-26.6-9.2-36.4,1.2c-32.2,34.3-98.3,30.9-127.9,4.2c-10.5-9.5-26.8-8.6-36.3,1.9c-9.5,10.5-8.7,26.8,1.9,36.4c25.5,23,60.7,34.4,95.9,34.4c39.1,0,78.3-14,104-41.5C767.4,489.7,766.9,473.5,756.5,463.8z"/><path d="M969,169.2c-2.4-14-16.1-23.3-29.7-20.9c-14,2.5-23.4,15.8-20.9,29.8c26.2,149.9,36.7,234.7-30.9,375.2l-8,16.5c-44.6,92.3-84.2,174.4-66.6,252.5c-19.6-9.5-40.4-27.1-52-57.1c62.7-104.1,100.8-242.3,111.7-357.2c0.1-0.9-0.3-1.8-0.3-2.7c0-1.7-0.2-3.3-0.5-5c-0.4-1.6-0.8-3.2-1.5-4.7c-0.6-1.5-1.4-2.8-2.3-4.2c-0.9-1.4-2-2.7-3.1-3.9c-1.2-1.1-2.4-2.1-3.8-3c-1.4-1-2.9-1.7-4.6-2.5c-0.8-0.4-1.4-1-2.3-1.2c-131.7-39.4-227.2-152.4-243.5-239c-0.4-2.1-1.4-3.8-2.3-5.6c7-24.4,12.6-48.8,15.5-72.7c1.8-14.1-8.3-26.9-22.4-28.7c-13.8-1.9-26.9,8.3-28.7,22.4C559.8,164.4,498.7,282.3,413.2,365c-39,37.8-79.8,62.7-119.4,86.8c-50,30.6-97.2,59.4-130.3,108.9c-6.2,9.3-5.4,21.1,1,29.5c0.3,0.9,0.2,1.8,0.5,2.7l10.1,25.2c20.4,50.9,40.4,100.3,63.7,144.4C186.5,732.8,116,670,77.3,538.3C23.4,354.5,126,168.6,127,166.7c7-12.4,2.6-28-9.8-35c-12.6-6.9-28.1-2.6-35,9.8C77.5,149.8-32.2,347.8,28,552.9c65.9,224.3,218.2,274.8,259.2,284.5c16.8,20.5,35.6,38.4,57.1,52.6l17.3,11.6c53.7,36.2,97.6,63.9,134.2,63.9c30.6,0,81.4-29.6,156.2-79c27.9-18.4,53.1-43.6,76-73.1c34.9,53,94.1,71,126.3,72.4c0.4,0,0.7,0,1.1,0c9,0,17.4-4.7,22.1-12.5c4.8-8.1,4.9-18.1,0.2-26.2c-41-69.9-1.5-151.5,48.3-254.9l8-16.6C1008.1,421.1,996.3,325.3,969,169.2z M621,845.3C535.1,902,505.6,913.9,495.8,914c-23.7,0-74.9-34.5-105.4-55.1l-17.9-11.9C304,801.9,266.4,708,223,599.2l-8.1-20.2c26.5-33.9,63.2-57.2,105.8-83.2c40-24.4,85.3-52.1,128.4-93.8c55.1-53.3,100.6-120.3,132-190.6C619.4,294,703.5,381,819.1,422.4C800.6,578.5,733.3,771,621,845.3z"/><path d="M556.9,752.7c-61.8,38-121.6,3.9-124.5,2.1c-12-7.2-27.9-3.4-35.2,8.7c-7.4,12.1-3.4,27.9,8.7,35.3c2.3,1.4,39.1,23.1,89,23.1c26.9,0,57.7-6.3,89-25.5c12.1-7.5,15.9-23.3,8.4-35.4C584.8,749.1,569,745.4,556.9,752.7z"/></g>
</svg>