<svg  id="Layer_1" data-name="Layer 1" xmlns="http://www.w3.org/2000/svg" viewBox="0 0 512 512"><defs><style>.cls-1{fill:crimson;}</style></defs><title>dryer-glyph</title><path class="cls-1" d="M6,134.23c16.46-10.27,36.23-19,58-26.52v143c-21.74-7.49-41.51-16.25-58-26.52a12.79,12.79,0,0,1-6-10.86V145.09A12.79,12.79,0,0,1,6,134.23Zm390.77,6.57a38.4,38.4,0,1,0,38.4,38.4A38.44,38.44,0,0,0,396.79,140.8Zm99.84,288.56A56.9,56.9,0,0,1,454.71,448H433c-23.71,0-45.23-15.22-53.55-37.88L336,293c-61.32-2.74-163.5-10.75-246.41-34.27V99.7C213.64,64.51,380.94,64,389.76,64,457.16,64,512,115.68,512,179.2A109.22,109.22,0,0,1,497.74,233l14,150.86A59.39,59.39,0,0,1,496.63,429.36ZM460.79,179.2a64,64,0,1,0-64,64A64.07,64.07,0,0,0,460.79,179.2Z"/></svg>