<?xml version="1.0" encoding="utf-8"?>
<!-- Svg Vector Icons : http://www.onlinewebfonts.com/icon -->
<!DOCTYPE svg PUBLIC "-//W3C//DTD SVG 1.1//EN" "http://www.w3.org/Graphics/SVG/1.1/DTD/svg11.dtd">
<svg fill="crimson" version="1.1" xmlns="http://www.w3.org/2000/svg" xmlns:xlink="http://www.w3.org/1999/xlink" x="0px" y="0px" viewBox="0 0 1000 1000" enable-background="new 0 0 1000 1000" xml:space="preserve">
<metadata> Svg Vector Icons : http://www.onlinewebfonts.com/icon </metadata>
<g><path d="M899,730.8c-50.2,0-91-40.7-91-90.9c0-50.2,40.7-90.9,91-90.9c50.2,0,91,40.7,91,90.9C990,690.1,949.3,730.8,899,730.8z M920.4,775.2c21.9-5.2,43.9,8.4,49.1,30.3c5.2,21.9-8.4,43.9-30.3,49.1l-135.4,30.1c-11.3,2.7-20.4,0.4-27.3-5.5c-1.7-1-3.1-2.3-4.1-4l-0.5-0.9c-2-2.6-3.8-5.7-5.3-9.1L703,755.7H93.4c-6.4,0-12.2-2.6-16.3-6.9c-4.5-3.8-7.5-9.4-8-15.8l-3-45.4c-0.8-12.5,8.7-23.4,21.2-24.2l616.2-40.8c16.8-3,28,6,32.2,13.1l94.9,160.8L920.4,775.2z M685.9,580l-102.3-18.8c-10-1.6-18.6-6.7-24.7-13.7c-0.4-0.4-0.8-0.9-1.1-1.4c-0.1-0.1-0.1-0.1-0.2-0.2c-0.2-0.3-0.4-0.5-0.6-0.8l-0.1-0.1c-2-2.7-3.7-5.6-5-8.7l-41.2-71.8L487.5,584l-159.2,7.6l45.5-219.8c13.2-53,53.7-61,80.8-58.6c31.6-2.9,64.9,15.9,78.2,34.8L629,484.8l70.3,12.9c22.7,3.7,38.2,25.1,34.5,47.8C730.1,568.3,708.6,583.7,685.9,580z M525.4,296c-50.2,0-91-40.7-91-90.9c0-50.2,40.7-90.9,91-90.9c50.2,0,91,40.7,91,90.9C616.4,255.3,575.7,296,525.4,296z M687.1,818.3l6.9,30.6c0,8.4-2.6,15.2-11,15.2H25.2c-8.4,0-15.2-6.8-15.2-15.2v-30.3c0-8.4,6.8-15.2,15.2-15.2h642.7C676.3,803.4,683.8,808.8,687.1,818.3z"/></g>
</svg>