<?xml version="1.0" encoding="utf-8"?>
<!-- Svg Vector Icons : http://www.onlinewebfonts.com/icon -->
<!DOCTYPE svg PUBLIC "-//W3C//DTD SVG 1.1//EN" "http://www.w3.org/Graphics/SVG/1.1/DTD/svg11.dtd">
<svg fill="crimson" version="1.1" xmlns="http://www.w3.org/2000/svg" xmlns:xlink="http://www.w3.org/1999/xlink" x="0px" y="0px" viewBox="0 0 1000 1000" enable-background="new 0 0 1000 1000" xml:space="preserve">
<metadata> Svg Vector Icons : http://www.onlinewebfonts.com/icon </metadata>
<g><g transform="translate(0.000000,512.000000) scale(0.100000,-0.100000)"><path d="M5012.2,5009c-174.5-44.1-345.1-182.1-427.5-343.2c-76.7-151.5-80.5-245.4-74.8-2135.7l5.7-1813.6l46-49.8c61.3-65.2,168.7-69,228.1-5.8L4832,705v1830.8c0,1027.6,7.7,1861.5,19.2,1903.7c9.6,42.2,32.6,97.8,51.8,124.6c46,63.3,187.9,136.1,264.6,136.1c88.2-1.9,208.9-65.2,260.7-136.1l46-65.2l9.6-1836.6l9.6-1838.5l53.7-46c69-59.4,149.5-59.4,218.6,0l53.7,46v1838.5V4499l-44.1,107.4c-95.9,237.7-322.1,400.7-573.2,412.2C5129.1,5022.4,5044.8,5018.5,5012.2,5009z"/><path d="M6889.1,4163.5c-128.4-51.8-281.8-191.7-345.1-312.5c-40.3-80.5-92-347-295.2-1497.3c-136.1-770.7-247.3-1426.3-247.3-1455.1c0-174.4,276.1-199.4,316.3-28.8c5.8,24.9,116.9,655.6,249.2,1403.3c132.3,747.7,243.5,1376.5,251.1,1395.7c5.8,19.2,32.6,61.4,59.4,92c172.5,207,500.4,124.6,561.7-139.9c11.5-53.7-40.3-377.7-232-1472.3C7071.2,1376,6960,726.1,6960,703.1c0-55.6,90.1-143.8,145.7-143.8c70.9,0,138,38.3,159.1,93.9C7305.1,753,7770.9,3442.7,7769,3573c0,230.1-143.8,454.4-358.5,567.5C7276.3,4209.5,7032.8,4219.1,6889.1,4163.5z"/><path d="M2987.7,3843.3c-256.9-97.8-437.1-347-437.1-603.9c0-63.3,634.6-3573.5,663.3-3661.7c13.4-46,101.6-111.2,149.5-111.2c21.1,0,88.2,26.8,145.7,57.5C3992.3-207.5,4567.4-15.8,5148.3,72.4c354.7,53.7,966.2,49.8,1251.9-7.7c531.1-107.4,1018-343.2,1353.5-655.7c233.9-220.5,243.5-316.3,97.8-987.3c-483.1-2212.3-613.5-2659-828.2-2822l-69-53.7l-1485.8-5.8l-1485.8-3.8l-88.2,42.2c-47.9,23-147.6,103.5-222.4,180.2c-116.9,118.9-295.2,394.9-1426.3,2210.4C1536.5-888.1,946,68.6,934.5,99.2c-26.9,70.9,13.4,134.2,134.2,205.1c182.1,105.4,431.3,61.3,682.5-122.7c53.7-40.3,402.6-417.9,776.4-839.7c373.8-421.8,699.7-786,726.6-809c141.9-132.3,350.8,46,241.5,205.1c-72.8,103.5-1389.9,1572-1485.8,1656.4c-132.3,115-358.5,232-525.3,272.2c-339.3,78.6-703.6-69-839.7-341.3C583.7,202.7,581.8,105,639.3-35c49.8-116.9,2542.1-4125.6,2672.5-4296.2c118.9-157.2,302.9-316.3,446.7-387.3l124.6-61.3h1543.3c1792.5,0,1669.8-13.4,1869.2,189.8c197.5,197.5,293.3,444.8,488.9,1248c166.8,682.5,481.2,2112.7,492.7,2235.4c15.3,149.6-23,348.9-92,490.8c-157.2,325.9-776.4,736.2-1388,918.3C6438.5,409.8,6254.5,434.7,5781,434.7c-324-1.9-500.4-9.6-661.4-34.5c-506.1-78.6-973.9-210.9-1380.3-394.9c-120.8-55.6-228.1-101.6-237.7-103.5c-24.9-5.8-628.8,3278.2-617.3,3364.5c36.4,310.6,462,389.2,600.1,111.2c32.6-65.2,97.8-400.7,266.5-1361.1c120.8-701.7,228.1-1307.5,239.6-1345.8c21.1-84.3,78.6-130.4,161-130.4c63.3,0,132.3,51.8,151.5,111.2c5.8,19.2-95.9,646.1-228.1,1393.7c-212.8,1209.7-245.4,1374.6-297.1,1480c-65.2,130.4-166.8,230.1-304.8,295.2C3352,3879.8,3112.3,3889.4,2987.7,3843.3z"/><path d="M8656.6,2662.4c-93.9-36.4-189.8-101.6-233.9-163c-23-30.7-241.6-487-485-1012.2C7462.3,461.6,7458.4,448.1,7560,377.2c55.6-38.3,153.4-36.4,203.2,5.8c21.1,17.3,230.1,446.7,463.9,952.8c293.3,636.5,440.9,935.5,479.3,973.9c65.2,59.4,168.7,69,276.1,24.9c78.6-32.6,113.1-92,99.7-172.5c-5.7-32.6-182.1-552.1-394.9-1152.2C8474.5,407.9,8302-104,8302-130.8c1.9-80.5,82.4-153.4,170.6-153.4c101.6,0,120.8,42.2,533,1207.8c375.7,1065.9,394.9,1129.2,396.8,1265.3c1.9,166.8-38.3,262.7-149.6,358.5C9114.8,2670.1,8821.5,2725.7,8656.6,2662.4z"/><path d="M5416.7-230.5c-124.6-70.9-117-164.9,24.9-345.1c450.5-565.5,1152.2-935.5,1777.2-935.5c118.9,0,141.9,5.8,176.4,44.1c57.5,63.3,65.2,103.5,36.4,174.5c-32.6,78.6-90.1,101.6-301,115c-458.2,30.6-989.2,306.7-1334.3,695.9c-70.9,80.5-157.2,174.5-189.8,210.9C5543.2-203.7,5483.8-192.2,5416.7-230.5z"/><path d="M4276-1536.1c-57.5-28.8-103.5-116.9-88.2-172.5c19.2-80.5,61.4-109.3,228.1-157.2c337.4-95.9,552.1-224.3,814.8-477.3c241.5-233.9,416-511.9,538.7-864.6c34.5-93.9,72.9-191.7,88.2-214.7c38.3-55.6,126.5-72.9,197.5-36.4c101.6,51.7,105.4,130.4,21.1,370c-268.4,763-837.8,1328.6-1539.4,1529.8C4341.2-1503.5,4339.3-1503.5,4276-1536.1z"/></g></g>
</svg>