<?xml version="1.0" encoding="utf-8"?>
<!-- Svg Vector Icons : http://www.onlinewebfonts.com/icon -->
<!DOCTYPE svg PUBLIC "-//W3C//DTD SVG 1.1//EN" "http://www.w3.org/Graphics/SVG/1.1/DTD/svg11.dtd">
<svg fill="crimson" version="1.1" xmlns="http://www.w3.org/2000/svg" xmlns:xlink="http://www.w3.org/1999/xlink" x="0px" y="0px" viewBox="0 0 1000 1000" enable-background="new 0 0 1000 1000" xml:space="preserve">
<metadata> Svg Vector Icons : http://www.onlinewebfonts.com/icon </metadata>
<g><g transform="translate(0.000000,511.000000) scale(0.100000,-0.100000)"><path d="M4815.9,5001.7c-38.9-4.1-145.3-22.5-235.3-38.9c-701.7-139.1-1231.6-501.2-1489.3-1016.8c-186.2-376.4-239.4-726.3-239.4-1601.9c0-484.8-2-519.6-49.1-654.7c-108.4-319.2-263.9-554.4-550.3-832.6l-186.2-180l32.7-198.4c47.1-266,141.2-550.3,268-806c96.2-192.3,114.6-214.8,200.5-257.8c167.7-83.9,341.6-106.4,822.4-106.4h446l135-112.5c169.8-139.1,401-259.8,611.7-319.2c231.2-65.4,607.6-67.5,834.7-2c212.8,61.4,441.9,182.1,611.7,321.2l135,112.5h446c315,0,488.9,10.2,589.2,30.7c163.7,34.8,384.6,135,556.5,251.6c133,90,368.2,329.4,478.7,484.9c90,124.8,190.3,296.6,180,304.8c-4.1,4.1-77.8,49.1-163.7,100.2c-531.9,313-887.9,722.2-1063.8,1221.3c-43,124.8-47.1,178-61.4,879.7c-14.3,797.9-24.6,887.9-133,1176.3c-167.8,441.9-466.5,761-918.6,982C5666.9,4940.4,5180,5040.6,4815.9,5001.7z M6151.8,3309.9c69.6-69.6,190.3-180,266-247.5l139.1-122.8l49.1-202.5c188.2-750.8,139.1-1728.7-122.7-2405.9C6155.9-521.9,5701.7-935.2,5051.1-972c-165.7-10.2-237.3-4.1-372.3,30.7c-421.4,106.4-587.1,257.8-945.2,865.4c-122.7,206.6-180,286.4-491,666.9c-225,274.1-308.9,519.6-231.2,673.1c126.8,249.6,617.8,769.2,914.5,969.7c253.7,171.9,347.8,204.6,675.1,235.3c343.7,34.8,482.8,69.6,669,167.8c272.1,143.2,429.6,327.3,615.8,720.1l102.3,216.9l18.4-69.6C6018.8,3463.3,6076.1,3385.5,6151.8,3309.9z"/><path d="M3883,1724.4c-128.9-61.4-192.3-124.8-192.3-192.3c0-34.8,4.1-34.8,63.4,8.2c143.2,102.3,427.6,133,583.1,61.4c173.9-79.8,294.6-71.6,294.6,18.4c0,83.9-235.3,163.7-480.8,163.7C4036.4,1783.7,3983.2,1771.4,3883,1724.4z"/><path d="M5572.8,1751c-149.3-40.9-208.7-81.8-200.5-137.1c12.3-79.8,98.2-90,245.5-28.7c204.6,88,468.5,67.5,628.1-45l63.4-45v43c0,59.3-81.8,135-210.7,194.4C5971.7,1791.9,5754.9,1800.1,5572.8,1751z"/><path d="M4018,1362.2c-85.9-36.8-157.5-102.3-196.4-178c-55.2-104.3,10.2-133,71.6-32.7c63.4,104.3,239.4,200.5,186.2,100.2c-30.7-55.2-6.1-135,55.2-184.1c71.6-55.2,141.2-51.1,204.6,12.3c43,43,51.1,65.5,40.9,133c-8.2,61.4-4.1,79.8,20.5,79.8c32.7,0,143.2-106.4,182.1-173.9c20.5-34.8,28.6-36.8,51.1-14.3c47,45-38.9,167.8-165.7,235.3c-85.9,45-133,55.2-243.4,55.2C4151,1392.9,4056.9,1378.6,4018,1362.2z"/><path d="M5534,1339.7c-128.9-67.5-216.9-190.3-167.8-235.3c22.5-22.5,30.7-20.5,51.1,14.3c38.9,67.5,149.3,173.9,182.1,173.9c24.6,0,28.7-18.4,20.5-79.8c-10.2-67.5-2-90,40.9-133c71.6-71.6,145.3-67.5,221,6.1c63.4,63.4,71.6,104.3,38.9,167.8c-53.2,98.2,122.8,2,186.2-102.3c36.8-61.4,79.8-75.7,94.1-30.7c12.3,36.8-75.7,151.4-159.6,206.6c-71.6,47.1-112.5,59.3-241.4,63.4C5660.8,1397,5632.1,1392.9,5534,1339.7z"/><path d="M4748.4,503c-24.6-24.5,30.7-94.1,98.2-122.8c143.2-59.3,347.8-22.5,396.9,71.6c34.8,63.4-2.1,67.5-51.2,8.2c-40.9-53.2-55.2-57.3-192.3-57.3c-137.1,0-151.4,4.1-192.3,57.3C4783.1,490.7,4756.5,511.2,4748.4,503z"/><path d="M4576.5-194.6c-32.7-83.9,235.3-231.2,423.5-231.2c216.9,0,517.6,188.2,407.1,257.8c-12.3,6.1-47.1-10.2-75.7-38.9c-167.8-159.6-523.7-157.5-666.9,4.1C4617.4-151.6,4594.9-147.5,4576.5-194.6z"/><path d="M1784,3064.4c-308.9-110.5-531.9-274.1-699.7-509.4c-128.9-182.1-194.4-321.2-251.6-544.2c-149.3-560.5,8.2-1761.4,345.7-2635c104.3-270,266-589.2,417.3-814.2c227.1-341.7,806-971.8,1067.9-1162c335.5-243.5,918.6-304.8,1309.3-137.1c198.4,85.9,523.7,495.1,484.9,611.7c-12.3,38.9-335.5,491-597.4,832.6c-137.1,180-235.3,274.2-286.4,274.2c-18.4,0-186.2-65.5-372.3-145.3c-394.8-169.8-460.3-184.1-538.1-116.6c-122.7,106.4-409.2,523.7-538,783.5c-212.8,427.6-313,779.4-362.1,1270.4c-30.7,321.2-32.7,317.1,263.9,431.7c239.4,94.1,401,188.2,439.8,259.8c26.6,47.1,116.6,959.5,118.7,1194.8c0,81.8-8.2,165.7-20.5,186.2c-10.2,20.5-104.3,85.9-208.7,147.3C2121.5,3127.8,2004.9,3142.1,1784,3064.4z"/><path d="M6847.4-1156.1c-38.9-360.1-163.7-734.5-349.8-1043.4c-85.9-141.2-104.3-159.6-161.6-165.7c-169.8-16.4-550.3,139.1-783.5,319.1l-126.8,100.3l-124.8-51.2c-133-53.2-343.7-69.6-491-38.9l-79.8,16.4l14.3-61.4c36.8-171.8-96.2-454.2-319.1-679.2c-106.4-108.4-178-157.5-327.3-229.1c-237.3-114.6-374.4-143.2-662.8-141.2c-364.2,2.1-716,120.7-1004.5,337.6c-249.6,188.2-720.1,691.5-963.6,1027l-43,61.4l-141.2-145.3c-441.9-448-785.6-1292.9-818.3-2013.1c-14.3-300.7-20.5-290.5,223-386.7c644.4-255.7,1663.2-429.6,3033.9-517.6c501.2-30.7,2056-30.7,2557.3,0c1370.7,88,2389.5,261.8,3033.9,517.6c243.5,96.2,237.3,85.9,223,386.7c-30.7,658.8-319.2,1423.9-718.1,1904.6c-210.7,257.8-364.2,349.8-1061.8,644.4c-227.1,96.2-517.6,220.9-644.4,276.2c-128.9,55.2-233.2,100.3-237.3,100.3C6871.9-937.2,6859.6-1035.4,6847.4-1156.1z M5161.6-2670c137.1-104.3,175.9-239.4,106.4-380.5c-49.1-102.3-163.7-178-268-178c-102.3,0-218.9,75.7-266,173.9c-47.1,96.2-51.1,145.2-18.4,229.1C4785.2-2641.4,5014.3-2561.6,5161.6-2670z M5161.6-3594.7c130.9-92.1,175.9-247.5,114.6-378.5c-104.3-220.9-415.3-233.2-536-20.5c-53.2,92.1-59.3,165.7-18.4,259.8C4797.5-3557.9,5014.3-3488.3,5161.6-3594.7z"/></g></g>
</svg>