<?xml version="1.0" encoding="utf-8"?>
<!-- Svg Vector Icons : http://www.onlinewebfonts.com/icon -->
<!DOCTYPE svg PUBLIC "-//W3C//DTD SVG 1.1//EN" "http://www.w3.org/Graphics/SVG/1.1/DTD/svg11.dtd">
<svg fill="crimson" version="1.1" xmlns="http://www.w3.org/2000/svg" xmlns:xlink="http://www.w3.org/1999/xlink" x="0px" y="0px" viewBox="0 0 1000 1000" enable-background="new 0 0 1000 1000" xml:space="preserve">
<metadata> Svg Vector Icons : http://www.onlinewebfonts.com/icon </metadata>
<g><path d="M302.6,581.6c-11.3,0-20.4,9.1-20.4,20.4s9.1,20.5,20.4,20.5c11.3,0,20.4-9.2,20.4-20.5S313.9,581.6,302.6,581.6z M302.6,608.8c-3.8,0-6.8-3-6.8-6.8c0-3.7,3.1-6.8,6.8-6.8c3.7,0,6.8,3.1,6.8,6.8C309.4,605.9,306.4,608.8,302.6,608.8z M554.4,561.2c0,63.9,51.8,115.7,115.7,115.7c63.9,0,115.7-51.8,115.7-115.7c0-63.9-51.8-115.7-115.7-115.7C606.2,445.5,554.4,497.4,554.4,561.2z M772.1,561.2c0,56.4-45.7,102.1-102,102.1s-102-45.8-102-102.1c0-56.3,45.7-102.1,102-102.1C726.4,459.1,772.1,504.8,772.1,561.2z M309.4,547.6c0-11.3-9.1-20.4-20.4-20.4c-11.3,0-20.4,9.1-20.4,20.4S277.7,568,289,568C300.3,568,309.4,558.9,309.4,547.6z M282.2,547.6c0-3.8,3.1-6.8,6.8-6.8c3.7,0,6.8,3.1,6.8,6.8s-3,6.8-6.8,6.8S282.2,551.4,282.2,547.6z M527.2,677h-54.5v13.7h54.5V677z M935.5,527.2c0-203-177-517.2-435.5-517.2C240.7,10,64.4,324.2,64.4,527.2c0,34.3,7.1,67.3,19.1,98.8c-11.6,11.1-19.1,26.7-19.1,44.2c0,33.9,27.4,61.3,61.2,61.3c6.7,0,12.9-1.8,19-3.8c1.4,1.7,3.1,3.1,4.6,4.8C195.9,881.6,335.2,990,500,990s304.1-108.4,350.8-257.7c1.4-1.7,3.1-3.1,4.5-4.8c6.1,2,12.3,3.8,19,3.8c33.7,0,61.3-27.4,61.3-61.3c0-17.5-7.4-32.9-19.1-44.2C928.4,594.5,935.5,561.5,935.5,527.2z M350.1,96.9c22.7,18.9,53.7,47.5,77.9,81.6c17.7,24.9,31.6,47.6,42.1,66.2c-26-13.8-67.5-33.3-112-43.3c-42.3-9.4-86.2-9.9-116.1-8.8C273.8,154.5,310.3,121.6,350.1,96.9z M125.6,690.5c-11.3,0-20.4-9.2-20.4-20.5s9.1-20.5,20.4-20.5c3.2,0,5.6,2.1,8.4,3.5c0.9,10.9,2.4,21.7,4.2,32.2C134.7,688.2,130.5,690.5,125.6,690.5z M133.1,610.3c-2.5-0.2-4.8-1.5-7.4-1.5c-1.7,0-3.1,0.9-4.7,1c-9.8-26.5-15.7-54-15.7-82.6c0-86.4,39.8-199.2,105.5-293.4c25.7-2.1,82.9-4.8,137,7.2c25.1,5.6,49.4,14.4,70.6,23.4C258.7,300.7,138.6,440.9,133.1,610.3z M500,949.1c-180.4,0-326.6-146.2-326.6-326.6c0-174.9,137.9-316.6,310.7-325.1c2.9,1.8,4.9,3,4.9,3l0.8-3.6c3.5-0.1,6.7-1,10.2-1c180.4,0,326.6,146.3,326.6,326.7C826.6,802.9,680.4,949.1,500,949.1z M874.3,690.5c-4.9,0-9.1-2.4-12.6-5.3c1.8-10.5,3.2-21.3,4.2-32.2c2.8-1.3,5-3.5,8.4-3.5c11.3,0,20.3,9.2,20.3,20.5S885.6,690.5,874.3,690.5z M879,609.8c-1.5-0.1-3-1-4.7-1c-2.6,0-4.9,1.2-7.4,1.4C860.7,420.4,710.6,267.2,522,256c-8.4-17.3-28.1-55.4-59.8-100c-23.2-32.5-52.3-60.2-74.8-79.3c35.5-16.4,73.2-25.9,112.6-25.9c220.1,0,394.7,296,394.7,476.4C894.6,555.8,888.8,583.4,879,609.8z M649.6,520.4c0,11.3,9.2,20.4,20.5,20.4c11.3,0,20.5-9.1,20.5-20.4c0-11.3-9.2-20.4-20.5-20.4C658.8,500,649.6,509.1,649.6,520.4z M677,520.4c0,3.7-3.1,6.8-6.8,6.8s-6.8-3.1-6.8-6.8c0-3.8,3.1-6.8,6.8-6.8S677,516.6,677,520.4z M649.6,547.6c0-11.3-9.1-20.4-20.3-20.4c-11.4,0-20.5,9.1-20.5,20.4s9.1,20.5,20.5,20.5C640.6,568,649.6,558.9,649.6,547.6z M622.5,547.6c0-3.8,3-6.8,6.8-6.8c3.7,0,6.8,3.1,6.8,6.8s-3.1,6.8-6.8,6.8C625.5,554.4,622.5,551.4,622.5,547.6z M445.5,561.2c0-63.9-51.8-115.7-115.7-115.7c-63.9,0-115.7,51.8-115.7,115.7c0,63.9,51.8,115.7,115.7,115.7C393.7,677,445.5,625.1,445.5,561.2z M329.8,663.3c-56.3,0-102.1-45.7-102.1-102.1c0-56.4,45.7-102.1,102.1-102.1c56.4,0,102,45.8,102,102.2S386.2,663.3,329.8,663.3z M581.6,772.1c0,0-41.8,13.7-82.5,13.7c-40.9,0-80.8-13.7-80.8-13.7c-7.5,0-13.6,6.1-13.6,13.7v13.7c0,7.5,6.1,13.7,13.6,13.7c0,0,28.1,13.5,81.3,13.5c55.6,0,82.1-13.5,82.1-13.5c7.5,0,13.6-6.1,13.6-13.7v-13.7C595.2,778.3,589.1,772.1,581.6,772.1z M697.4,581.6c-11.4,0-20.5,9.1-20.5,20.4s9.1,20.5,20.5,20.5c11.3,0,20.3-9.2,20.3-20.5S708.6,581.6,697.4,581.6z M697.4,608.8c-3.8,0-6.8-3-6.8-6.8c0-3.7,3-6.8,6.8-6.8c3.7,0,6.7,3.1,6.7,6.8C704.1,605.9,701.1,608.8,697.4,608.8z M642.8,581.6c-11.3,0-20.3,9.1-20.3,20.4s9.1,20.5,20.3,20.5c11.4,0,20.5-9.2,20.5-20.5S654.2,581.6,642.8,581.6z M642.8,608.8c-3.7,0-6.7-3-6.7-6.8c0-3.7,3-6.8,6.7-6.8c3.8,0,6.8,3.1,6.8,6.8C649.6,605.9,646.7,608.8,642.8,608.8z M350.2,520.4c0-11.3-9.1-20.4-20.4-20.4c-11.3,0-20.5,9.1-20.5,20.4c0,11.3,9.1,20.4,20.4,20.4C341.1,540.8,350.2,531.7,350.2,520.4z M329.8,527.2c-3.8,0-6.8-3.1-6.8-6.8c0-3.8,3-6.8,6.8-6.8s6.8,3.1,6.8,6.8C336.6,524.1,333.6,527.2,329.8,527.2z M357,581.6c-11.3,0-20.4,9.1-20.4,20.4s9.1,20.5,20.4,20.5c11.3,0,20.5-9.2,20.5-20.5S368.3,581.6,357,581.6z M357,608.8c-3.7,0-6.8-3-6.8-6.8c0-3.7,3.1-6.8,6.8-6.8c3.8,0,6.8,3.1,6.8,6.8C363.8,605.9,360.8,608.8,357,608.8z M710.9,568c11.4,0,20.5-9.2,20.5-20.5s-9.1-20.4-20.5-20.4c-11.3,0-20.3,9.1-20.3,20.4S699.7,568,710.9,568z M710.9,540.8c3.8,0,6.8,3.1,6.8,6.8s-3,6.8-6.8,6.8c-3.7,0-6.8-3-6.8-6.8C704.1,543.8,707.2,540.8,710.9,540.8z M370.6,527.2c-11.3,0-20.4,9.1-20.4,20.4s9.1,20.5,20.4,20.5s20.4-9.2,20.4-20.5S381.9,527.2,370.6,527.2z M370.6,554.4c-3.7,0-6.8-3-6.8-6.8c0-3.8,3.1-6.8,6.8-6.8c3.8,0,6.9,3.1,6.9,6.8S374.4,554.4,370.6,554.4z"/></g>
</svg>