<?xml version="1.0" encoding="utf-8"?>
<!-- Svg Vector Icons : http://www.onlinewebfonts.com/icon -->
<!DOCTYPE svg PUBLIC "-//W3C//DTD SVG 1.1//EN" "http://www.w3.org/Graphics/SVG/1.1/DTD/svg11.dtd">
<svg fill="crimson" version="1.1" xmlns="http://www.w3.org/2000/svg" xmlns:xlink="http://www.w3.org/1999/xlink" x="0px" y="0px" viewBox="0 0 1000 1000" enable-background="new 0 0 1000 1000" xml:space="preserve">
<metadata> Svg Vector Icons : http://www.onlinewebfonts.com/icon </metadata>
<g><g><g><path d="M324.9,290.5c-1.1,3.2-1.1,11-0.3,18.7c0,1.1-0.3,2.2-0.3,3.3c0,5.1,0.2,10.2,0.7,15.2c7.8,82.7,76.4,145.1,159.6,145.1c88.4,0,160.3-71.9,160.3-160.3c0-4.4-1-8.6-1.3-12.9c0.7-5.2,1.2-10.7,1.7-17.1c5.7-10.1,3.1-63-15-64.1c1.1-29.2-10.9-29.4-15-37.2c-4.1-7.8-7.5-29.5-15.5-30.5c3.9,15.7,2.3,17.5,0,15.5c-2.3-2.1-21.2-38.8-33-39.3c11.9,15.5,18.6,29.7,16.5,28.4c-2-1.3-64.9-41.3-96.1-42.9c-31.3-1.5-70.3,24.3-70.3,24.3s-1.8-12.9,9.8-24.3c-8.5-2.6-20.6,21-22.8,24.8c-1,1.8-17.3-1-32.8,6.2c-17.3,8-34.2,26.5-40,38.3c-11.1,22.2-8.5,51.4-8.3,55.8c0.2,4.4-7,14-5.7,24.1C318.4,271.6,327.2,283.8,324.9,290.5z M354.8,333.1c4.4-12.6,12.2-17.8,11.9-25.8c-0.5-14.5-9.7-11.7-9.8-26.4c-0.1-8,1.4-16.7,3.8-24.9c5.2-11.3,12-21.6,20-31c21.3-6.5,85.2,14.5,99.2,9.4c6.7-8.3,65.3-13.2,95.1-7c12.2,2.5,28,20.3,34.9,49.6c4.9,21,6.9,45.9,7.7,65.4c-13.7,60.8-68,106.5-132.9,106.5c-63.9,0-117.4-43.5-132.1-103.7C353,340.8,353.7,336.6,354.8,333.1z"/><path d="M128.6,566.5c4.3,0,7.8,3.5,7.8,7.8c0,4.3-3.5,7.8-7.8,7.8s-7.8-3.5-7.8-7.8C120.8,570.1,124.3,566.5,128.6,566.5z"/><path d="M899.6,509.3v-48.1h-67.4v47.1c-35.1,11-60.2,39.5-60.2,73.1c0,2.9,0.9,5.7,1.3,8.5l-12.2,15.8L653,521.9l0-0.7l-1.4-0.4l-1.5-1.2l-0.5,0.6l-66.4-19.1c0,46.2-37.4,83.6-83.6,83.6c-46.2,0-83.6-37.4-83.6-83.6l-91.3,20.1l-0.1-0.1l-111,86l-42.1-54.3l-20,18.3c7.9-83.7,29.4-256.6,16.3-258.8c-0.9-0.2-1.9,0.7-3,2.6c-17.4,23.4-54.1,250.4-65.5,288.2c-10.8,35.7-31,92-41.9,104.2c-22.9-1.8-43.7,16-46.9,40.6c-3.3,25.4,13.3,48.6,37,51.6c23.7,3.1,45.7-15.1,49-40.5c2.2-17.2-4.7-33.3-16.7-42.9c-2-15.4,30-83.4,39.6-103.3l6.7,8.6c5.1,31.2,14,92.2,7.9,102.8c-0.1,0.2-0.1,0.2-0.1,0.3c-15.6,5.4-28,20.1-30.4,38.5c-3.3,25.4,13.4,48.6,37.1,51.6c23.7,3.1,45.7-15.1,49-40.4c2.9-22.5-9.9-43.3-29.4-49.8c-5.7-5.2-9-38.9-10.5-72.6l2.3,3l4.2,5.4l43.6,56.3l61.7-47.7l-0.1-0.1l68.7-53.2l13.1,272.1h288.4l15.9-271.4l66,51.1l-0.1,0.1l61.7,47.8l38.7-50v1.9h101.8v-20.8c24.7-14,41.1-37.9,41.1-64.9C956.6,548.9,933,521,899.6,509.3z M87.4,757.9c-2.7,20.4-20,35-38.7,32.6C30,788,16.9,769.5,19.6,749.1c2.6-20.4,20-35,38.7-32.6C77,719,90,737.6,87.4,757.9z M180.5,773.2c-2.6,20.4-20,35-38.7,32.6c-18.7-2.4-31.8-21-29.1-41.3c2.6-20.3,20-35,38.7-32.6C170.1,734.2,183.2,752.8,180.5,773.2z M130.2,562c6.8,0.9,11.6,7.1,10.7,13.9c-0.9,6.8-7.1,11.6-13.9,10.7c-6.8-0.9-11.6-7.2-10.7-13.9C117.2,565.9,123.4,561.1,130.2,562z"/><path d="M947,397.1v-21.6l31.2-15.9l-9.6-24.4L843.2,380l0-0.1L811.3,397h-27.6v8.8H814l28.7,16.8v23.2h-5.2v12.3h56.1v-12.3h-4.8c-0.3-6.2-0.9-22.4,0.6-25.5c32-14.2,95.5,69.8,95.5,69.8l4.9-4.6L947,397.1z M842.6,412.4l-19.9-11.6l19.9-10.7V412.4z"/></g></g><g></g><g></g><g></g><g></g><g></g><g></g><g></g><g></g><g></g><g></g><g></g><g></g><g></g><g></g><g></g></g>
</svg>