<?xml version="1.0" encoding="utf-8"?>
<!-- Svg Vector Icons : http://www.onlinewebfonts.com/icon -->
<!DOCTYPE svg PUBLIC "-//W3C//DTD SVG 1.1//EN" "http://www.w3.org/Graphics/SVG/1.1/DTD/svg11.dtd">
<svg fill="crimson" version="1.1" xmlns="http://www.w3.org/2000/svg" xmlns:xlink="http://www.w3.org/1999/xlink" x="0px" y="0px" viewBox="0 0 1000 1000" enable-background="new 0 0 1000 1000" xml:space="preserve">
<metadata> Svg Vector Icons : http://www.onlinewebfonts.com/icon </metadata>
<g><g transform="translate(0.000000,511.000000) scale(0.100000,-0.100000)"><path d="M3949.9,4994.2c-433.4-63.9-869.6-352.8-1080.7-714c-366.7-627.9-277.8-1375.2,227.8-1880.8c519.5-519.5,1289-602.9,1919.7-205.6c691.7,438.9,902.9,1411.3,455.6,2108.6c-127.8,200-413.9,455.6-616.7,550.1C4566.6,4988.7,4247.1,5038.7,3949.9,4994.2z"/><path d="M1785.7,1271.5c-180.6-69.5-352.8-236.1-441.7-422.3l-66.7-144.5v-1478v-1480.7h2358.6h2358.6l400.1,466.7c297.3,344.5,413.9,497.3,447.3,597.3c25,75,91.7,197.3,144.5,275l100,138.9L7078-9.2c-8.3,883.5-11.1,891.8-272.2,1125.1c-250,225-113.9,213.9-2636.4,211.1C2002.4,1327.1,1924.6,1324.3,1785.7,1271.5z"/><path d="M7658.7-698.2c-155.6-41.7-300-122.2-419.5-241.7c-105.6-102.8-238.9-341.7-238.9-425c0-22.2,230.6-272.2,511.2-552.8l511.2-511.2l125,47.2c183.4,69.5,344.5,194.5,438.9,344.5c105.6,163.9,136.1,280.6,136.1,505.6c0,341.7-238.9,683.4-550.1,789C8003.1-684.3,7792-667.6,7658.7-698.2z"/><path d="M5847.3-2731.8c-563.9-655.6-1050.1-1239-1077.9-1294.6c-36.1-77.8-44.4-141.7-33.3-263.9c13.9-158.4,13.9-158.4-80.6-205.6c-113.9-52.8-202.8-27.8-372.3,111.1c-325,261.2-747.3,247.3-936.2-27.8c-38.9-58.3-69.4-119.5-69.4-136.1c0-19.5,55.6-52.8,122.2-75c119.5-41.7,122.2-41.7,152.8,27.8c16.7,36.1,75,86.1,130.6,108.3c127.8,52.8,241.7,19.5,472.3-144.4c261.1-186.1,505.6-208.4,711.2-63.9c69.5,50,91.7,52.8,225,25c113.9-25,166.7-25,250,5.6c72.2,25,502.9,386.1,1300.2,1091.8c655.7,577.8,1191.8,1058.5,1191.8,1066.8c0,11.1-216.7,230.6-477.9,494.5l-480.6,475L5847.3-2731.8z"/></g></g>
</svg>